<svg width="49" height="49" viewBox="0 0 49 49" fill="none" xmlns="http://www.w3.org/2000/svg">
<circle cx="24.5" cy="24.5" r="24.5" fill="#FF3333" fill-opacity="0.2"/>
<path d="M28.5 13H20.5C19.837 13 19.2011 13.2634 18.7322 13.7322C18.2634 14.2011 18 14.837 18 15.5V32.5C18 33.163 18.2634 33.7989 18.7322 34.2678C19.2011 34.7366 19.837 35 20.5 35H28.5C29.163 35 29.7989 34.7366 30.2678 34.2678C30.7366 33.7989 31 33.163 31 32.5V15.5C31 14.837 30.7366 14.2011 30.2678 13.7322C29.7989 13.2634 29.163 13 28.5 13ZM24.5 34C23.67 34 23 33.33 23 32.5C23 31.67 23.67 31 24.5 31C25.33 31 26 31.67 26 32.5C26 33.33 25.33 34 24.5 34ZM29 30H20V16H29V30Z" fill="#FF3333"/>
</svg>
