<svg width="49" height="49" viewBox="0 0 49 49" fill="none" xmlns="http://www.w3.org/2000/svg">
<circle cx="24.5" cy="24.5" r="24.5" fill="#3347FF" fill-opacity="0.2"/>
<g clip-path="url(#clip0_13_2682)">
<path d="M31.4531 23.375C31.6875 23.5052 31.901 23.6641 32.0938 23.8516C32.2865 24.0391 32.4479 24.2474 32.5781 24.4766C32.7083 24.7057 32.8125 24.9479 32.8906 25.2031C32.9688 25.4583 33.0052 25.724 33 26H32C32 25.7292 31.9479 25.4714 31.8438 25.2266C31.7396 24.9818 31.5964 24.7708 31.4141 24.5938C31.2318 24.4167 31.0182 24.2734 30.7734 24.1641C30.5286 24.0547 30.2708 24 30 24C29.724 24 29.4661 24.0521 29.2266 24.1562C28.987 24.2604 28.776 24.4036 28.5938 24.5859C28.4115 24.7682 28.2682 24.9818 28.1641 25.2266C28.0599 25.4714 28.0052 25.7292 28 26C28 26.474 27.8932 26.9245 27.6797 27.3516C27.4661 27.7786 27.1667 28.1328 26.7812 28.4141C27.1198 28.5859 27.4245 28.7969 27.6953 29.0469C27.9661 29.2969 28.2005 29.5781 28.3984 29.8906C28.5964 30.2031 28.7448 30.5365 28.8438 30.8906C28.9427 31.2448 28.9948 31.6146 29 32H28C28 31.5885 27.9219 31.2005 27.7656 30.8359C27.6094 30.4714 27.3932 30.1536 27.1172 29.8828C26.8411 29.612 26.5234 29.3984 26.1641 29.2422C25.8047 29.0859 25.4167 29.0052 25 29C24.5885 29 24.2005 29.0781 23.8359 29.2344C23.4714 29.3906 23.1536 29.6068 22.8828 29.8828C22.612 30.1589 22.3984 30.4766 22.2422 30.8359C22.0859 31.1953 22.0052 31.5833 22 32H21C21 31.6198 21.0521 31.2526 21.1562 30.8984C21.2604 30.5443 21.4089 30.2109 21.6016 29.8984C21.7943 29.5859 22.026 29.3047 22.2969 29.0547C22.5677 28.8047 22.875 28.5911 23.2188 28.4141C22.8385 28.1328 22.5417 27.7786 22.3281 27.3516C22.1146 26.9245 22.0052 26.474 22 26C22 25.7292 21.9479 25.4714 21.8438 25.2266C21.7396 24.9818 21.5964 24.7708 21.4141 24.5938C21.2318 24.4167 21.0182 24.2734 20.7734 24.1641C20.5286 24.0547 20.2708 24 20 24C19.724 24 19.4661 24.0521 19.2266 24.1562C18.987 24.2604 18.776 24.4036 18.5938 24.5859C18.4115 24.7682 18.2682 24.9818 18.1641 25.2266C18.0599 25.4714 18.0052 25.7292 18 26H17C17 25.7292 17.0365 25.4661 17.1094 25.2109C17.1823 24.9557 17.2839 24.7135 17.4141 24.4844C17.5443 24.2552 17.7083 24.0469 17.9062 23.8594C18.1042 23.6719 18.3177 23.5104 18.5469 23.375C18.375 23.1927 18.2422 22.9818 18.1484 22.7422C18.0547 22.5026 18.0052 22.2552 18 22C18 21.7292 18.0521 21.4714 18.1562 21.2266C18.2604 20.9818 18.4036 20.7708 18.5859 20.5938C18.7682 20.4167 18.9792 20.2734 19.2188 20.1641C19.4583 20.0547 19.7188 20 20 20C20.2708 20 20.5286 20.0521 20.7734 20.1562C21.0182 20.2604 21.2292 20.4036 21.4062 20.5859C21.5833 20.7682 21.7266 20.9818 21.8359 21.2266C21.9453 21.4714 22 21.7292 22 22C22 22.2552 21.9531 22.5026 21.8594 22.7422C21.7656 22.9818 21.6302 23.1927 21.4531 23.375C21.8802 23.6094 22.2292 23.9323 22.5 24.3438C22.7812 23.9271 23.1406 23.599 23.5781 23.3594C24.0156 23.1198 24.4896 23 25 23C25.5052 23 25.9766 23.1198 26.4141 23.3594C26.8516 23.599 27.2135 23.9271 27.5 24.3438C27.7708 23.9323 28.1198 23.6094 28.5469 23.375C28.375 23.1927 28.2422 22.9818 28.1484 22.7422C28.0547 22.5026 28.0052 22.2552 28 22C28 21.7292 28.0521 21.4714 28.1562 21.2266C28.2604 20.9818 28.4036 20.7708 28.5859 20.5938C28.7682 20.4167 28.9792 20.2734 29.2188 20.1641C29.4583 20.0547 29.7188 20 30 20C30.2708 20 30.5286 20.0521 30.7734 20.1562C31.0182 20.2604 31.2292 20.4036 31.4062 20.5859C31.5833 20.7682 31.7266 20.9818 31.8359 21.2266C31.9453 21.4714 32 21.7292 32 22C32 22.2552 31.9531 22.5026 31.8594 22.7422C31.7656 22.9818 31.6302 23.1927 31.4531 23.375ZM19 22C19 22.1406 19.026 22.2708 19.0781 22.3906C19.1302 22.5104 19.2005 22.6146 19.2891 22.7031C19.3776 22.7917 19.4844 22.8646 19.6094 22.9219C19.7344 22.9792 19.8646 23.0052 20 23C20.1406 23 20.2708 22.974 20.3906 22.9219C20.5104 22.8698 20.6146 22.7995 20.7031 22.7109C20.7917 22.6224 20.8646 22.5156 20.9219 22.3906C20.9792 22.2656 21.0052 22.1354 21 22C21 21.8594 20.974 21.7292 20.9219 21.6094C20.8698 21.4896 20.7995 21.3854 20.7109 21.2969C20.6224 21.2083 20.5156 21.1354 20.3906 21.0781C20.2656 21.0208 20.1354 20.9948 20 21C19.8594 21 19.7292 21.026 19.6094 21.0781C19.4896 21.1302 19.3854 21.2005 19.2969 21.2891C19.2083 21.3776 19.1354 21.4844 19.0781 21.6094C19.0208 21.7344 18.9948 21.8646 19 22ZM25 28C25.2708 28 25.5286 27.9479 25.7734 27.8438C26.0182 27.7396 26.2292 27.5964 26.4062 27.4141C26.5833 27.2318 26.7266 27.0208 26.8359 26.7812C26.9453 26.5417 27 26.2812 27 26C27 25.7292 26.9479 25.4714 26.8438 25.2266C26.7396 24.9818 26.5964 24.7708 26.4141 24.5938C26.2318 24.4167 26.0182 24.2734 25.7734 24.1641C25.5286 24.0547 25.2708 24 25 24C24.724 24 24.4661 24.0521 24.2266 24.1562C23.987 24.2604 23.776 24.4036 23.5938 24.5859C23.4115 24.7682 23.2682 24.9818 23.1641 25.2266C23.0599 25.4714 23.0052 25.7292 23 26C23 26.276 23.0521 26.5339 23.1562 26.7734C23.2604 27.013 23.4036 27.224 23.5859 27.4062C23.7682 27.5885 23.9792 27.7318 24.2188 27.8359C24.4583 27.9401 24.7188 27.9948 25 28ZM29 22C29 22.1406 29.026 22.2708 29.0781 22.3906C29.1302 22.5104 29.2005 22.6146 29.2891 22.7031C29.3776 22.7917 29.4844 22.8646 29.6094 22.9219C29.7344 22.9792 29.8646 23.0052 30 23C30.1406 23 30.2708 22.974 30.3906 22.9219C30.5104 22.8698 30.6146 22.7995 30.7031 22.7109C30.7917 22.6224 30.8646 22.5156 30.9219 22.3906C30.9792 22.2656 31.0052 22.1354 31 22C31 21.8594 30.974 21.7292 30.9219 21.6094C30.8698 21.4896 30.7995 21.3854 30.7109 21.2969C30.6224 21.2083 30.5156 21.1354 30.3906 21.0781C30.2656 21.0208 30.1354 20.9948 30 21C29.8594 21 29.7292 21.026 29.6094 21.0781C29.4896 21.1302 29.3854 21.2005 29.2969 21.2891C29.2083 21.3776 29.1354 21.4844 29.0781 21.6094C29.0208 21.7344 28.9948 21.8646 29 22Z" fill="#3347FF"/>
</g>
<defs>
<clipPath id="clip0_13_2682">
<rect width="16" height="16" fill="white" transform="translate(17 18)"/>
</clipPath>
</defs>
</svg>
