<svg width="49" height="49" viewBox="0 0 49 49" fill="none" xmlns="http://www.w3.org/2000/svg">
<circle cx="24.5" cy="24.5" r="24.5" fill="#3347FF" fill-opacity="0.2"/>
<g clip-path="url(#clip0_13_2722)">
<rect width="16" height="16" transform="translate(17 16)" fill="#3347FF"/>
<path d="M20.875 22.8984C20.9427 22.8984 21.0182 22.9089 21.1015 22.9297C21.1849 22.9505 21.2682 22.9792 21.3515 23.0156C21.4349 23.0521 21.5182 23.0859 21.6015 23.1172C21.6849 23.1484 21.7604 23.1797 21.8281 23.2109L21.7031 23.2266C21.6614 23.2318 21.6171 23.2344 21.5703 23.2344C21.4817 23.2344 21.401 23.2214 21.3281 23.1953C21.2552 23.1693 21.1875 23.1354 21.125 23.0938C21.0625 23.0521 21 23.0208 20.9375 23C20.875 22.9792 20.8177 22.9635 20.7656 22.9531C20.7135 22.9531 20.6666 22.9635 20.625 22.9844C20.5833 23.0052 20.5416 23.0286 20.5 23.0547C20.5 23.0339 20.4817 23.0234 20.4453 23.0234C20.4817 22.987 20.5494 22.9583 20.6484 22.9375C20.7474 22.9167 20.8229 22.9036 20.875 22.8984ZM21.9296 23.25C22.1432 23.25 22.3385 23.2865 22.5156 23.3594C22.4427 23.3854 22.3697 23.4062 22.2968 23.4219C22.2239 23.4375 22.1484 23.4479 22.0703 23.4531C21.9661 23.4531 21.8724 23.4427 21.789 23.4219C21.8151 23.3802 21.8411 23.3542 21.8671 23.3438C21.8932 23.3333 21.914 23.3021 21.9296 23.25ZM25 16C25.7343 16 26.4401 16.0964 27.1171 16.2891C27.7942 16.4818 28.4296 16.75 29.0234 17.0938C29.6171 17.4375 30.1588 17.8568 30.6484 18.3516C31.138 18.8464 31.5546 19.3854 31.8984 19.9688C32.2421 20.5521 32.513 21.1875 32.7109 21.875C32.9088 22.5625 33.0052 23.2708 33 24C33 24.7344 32.9036 25.4401 32.7109 26.1172C32.5182 26.7943 32.25 27.4297 31.9062 28.0234C31.5625 28.6172 31.1432 29.1589 30.6484 29.6484C30.1536 30.138 29.6145 30.5547 29.0312 30.8984C28.4479 31.2422 27.8125 31.513 27.125 31.7109C26.4375 31.9089 25.7291 32.0052 25 32C24.2656 32 23.5599 31.9036 22.8828 31.7109C22.2057 31.5182 21.5703 31.25 20.9765 30.9062C20.3828 30.5625 19.8411 30.1432 19.3515 29.6484C18.8619 29.1536 18.4453 28.6146 18.1015 28.0312C17.7578 27.4479 17.4869 26.8125 17.289 26.125C17.0911 25.4375 16.9947 24.7292 17 24C17 23.2656 17.0963 22.5599 17.289 21.8828C17.4817 21.2057 17.75 20.5703 18.0937 19.9766C18.4375 19.3828 18.8567 18.8411 19.3515 18.3516C19.8463 17.862 20.3854 17.4453 20.9687 17.1016C21.552 16.7578 22.1875 16.487 22.875 16.2891C23.5625 16.0911 24.2708 15.9948 25 16ZM30.9531 20.3359C30.8802 20.2214 30.8072 20.112 30.7343 20.0078C30.6614 19.9036 30.5859 19.7969 30.5078 19.6875C30.4974 19.7344 30.4843 19.7682 30.4687 19.7891C30.4531 19.8099 30.4427 19.8568 30.4375 19.9297C30.4375 19.9766 30.4557 20.0208 30.4921 20.0625C30.5286 20.1042 30.5755 20.1458 30.6328 20.1875C30.6901 20.2292 30.7474 20.2604 30.8046 20.2812C30.8619 20.3021 30.9114 20.3203 30.9531 20.3359ZM30.414 19.5703C30.414 19.612 30.4062 19.6406 30.3906 19.6562H30.4375C30.4583 19.6562 30.4739 19.6589 30.4843 19.6641L30.414 19.5703ZM25 31C25.5937 31 26.1744 30.9245 26.7421 30.7734C27.3099 30.6224 27.8463 30.4089 28.3515 30.1328C28.8567 29.8568 29.3255 29.5182 29.7578 29.1172C30.1901 28.7161 30.5677 28.2682 30.8906 27.7734C30.8229 27.6172 30.7578 27.4583 30.6953 27.2969C30.6328 27.1354 30.6015 26.9688 30.6015 26.7969C30.6015 26.6094 30.6093 26.4583 30.625 26.3438C30.6406 26.2292 30.6588 26.1276 30.6796 26.0391C30.7005 25.9505 30.7109 25.875 30.7109 25.8125C30.7109 25.75 30.7031 25.6693 30.6875 25.5703C30.6718 25.4714 30.6276 25.3646 30.5546 25.25C30.4817 25.1354 30.3854 24.974 30.2656 24.7656C30.2708 24.7292 30.2786 24.6797 30.289 24.6172C30.2994 24.5547 30.3099 24.4896 30.3203 24.4219C30.3307 24.3542 30.3333 24.2917 30.3281 24.2344C30.3229 24.1771 30.3099 24.1276 30.289 24.0859C30.1536 24.0703 30.013 24.0417 29.8671 24C29.7213 23.9583 29.5911 23.8958 29.4765 23.8125L29.5234 23.7734C29.4557 23.7891 29.388 23.8099 29.3203 23.8359C29.2526 23.862 29.1875 23.8906 29.125 23.9219C29.0625 23.9531 28.9947 23.974 28.9218 23.9844C28.8489 23.9948 28.7786 24.0052 28.7109 24.0156L28.5859 24L28.6093 23.9453C28.5364 23.9661 28.4583 23.9922 28.375 24.0234C28.2916 24.0547 28.2109 24.0703 28.1328 24.0703C28.0807 24.0703 28.0052 24.0521 27.9062 24.0156C27.8072 23.9792 27.7083 23.9349 27.6093 23.8828C27.5104 23.8307 27.4218 23.7734 27.3437 23.7109C27.2656 23.6484 27.2265 23.5885 27.2265 23.5312L27.2421 23.5078C27.2161 23.4766 27.1822 23.4479 27.1406 23.4219C27.0989 23.3958 27.0599 23.3698 27.0234 23.3438C26.9869 23.3177 26.9531 23.2891 26.9218 23.2578C26.8906 23.2266 26.8776 23.1901 26.8828 23.1484L26.9687 23.0781L26.789 23.0547L26.7265 22.8203C26.7369 22.8464 26.7604 22.8568 26.7968 22.8516C26.8333 22.8464 26.8619 22.8359 26.8828 22.8203L26.6015 22.6719L26.7968 22.1719C26.7239 21.901 26.7057 21.6927 26.7421 21.5469C26.7786 21.401 26.8489 21.2812 26.9531 21.1875C27.0572 21.0938 27.1718 21 27.2968 20.9062C27.4218 20.8125 27.5494 20.6849 27.6796 20.5234L27.6562 20.4297L28.1718 19.8047L28.289 19.7891C28.4349 19.7891 28.5989 19.7839 28.7812 19.7734C28.9635 19.763 29.1484 19.7448 29.3359 19.7188C29.5234 19.6927 29.7083 19.6667 29.8906 19.6406C30.0729 19.6146 30.2395 19.5807 30.3906 19.5391C30.2239 19.3411 30.0494 19.1536 29.8671 18.9766C29.6849 18.7995 29.4895 18.6302 29.2812 18.4688C29.2239 18.4896 29.1536 18.5182 29.0703 18.5547C28.9869 18.5911 28.9036 18.638 28.8203 18.6953C28.7369 18.7526 28.6718 18.8151 28.625 18.8828C28.5781 18.9505 28.5494 19.0208 28.539 19.0938L28.5859 19.2422C28.4921 19.3932 28.388 19.487 28.2734 19.5234C28.1588 19.5599 28.0416 19.5807 27.9218 19.5859C27.802 19.5911 27.677 19.5911 27.5468 19.5859C27.4166 19.5807 27.2916 19.6042 27.1718 19.6562L27.0468 19.3906L27.164 18.9375L27.0312 18.7422L28.3828 18.3203C28.3255 18.1745 28.2317 18.0651 28.1015 17.9922C27.9713 17.9193 27.8281 17.8828 27.6718 17.8828V17.8047L28.1093 17.7344C27.625 17.4948 27.1224 17.3125 26.6015 17.1875C26.0807 17.0625 25.5468 17 25 17C24.5468 17 24.0989 17.0443 23.6562 17.1328C23.2135 17.2214 22.7864 17.349 22.375 17.5156C21.9635 17.6823 21.5651 17.8906 21.1796 18.1406C20.7942 18.3906 20.4427 18.6719 20.125 18.9844C20.2604 18.9844 20.3645 19.0182 20.4375 19.0859C20.5104 19.1536 20.5781 19.2292 20.6406 19.3125C20.7031 19.3958 20.7682 19.4714 20.8359 19.5391C20.9036 19.6068 20.9947 19.6432 21.1093 19.6484L21.2343 19.5547L21.2187 19.3828L21.4765 19.0156L21.2734 18.4375C21.2994 18.4219 21.3385 18.3958 21.3906 18.3594C21.4427 18.3229 21.4869 18.3047 21.5234 18.3047C21.6796 18.3047 21.7994 18.3125 21.8828 18.3281C21.9661 18.3438 22.039 18.3724 22.1015 18.4141C22.164 18.4557 22.2187 18.5156 22.2656 18.5938C22.3125 18.6719 22.3854 18.7708 22.4843 18.8906L22.7656 18.6719C22.8177 18.6927 22.901 18.7266 23.0156 18.7734C23.1302 18.8203 23.2474 18.8776 23.3671 18.9453C23.4869 19.013 23.5885 19.0833 23.6718 19.1562C23.7552 19.2292 23.7994 19.2969 23.8046 19.3594C23.8046 19.4375 23.776 19.5 23.7187 19.5469C23.6614 19.5938 23.5859 19.6328 23.4921 19.6641C23.3984 19.6953 23.302 19.7188 23.2031 19.7344C23.1041 19.75 23.0052 19.7708 22.9062 19.7969C22.8072 19.8229 22.7317 19.849 22.6796 19.875C22.6276 19.901 22.5963 19.9453 22.5859 20.0078L23.039 20.1562C22.9349 20.2448 22.8229 20.3255 22.7031 20.3984C22.5833 20.4714 22.4583 20.5391 22.3281 20.6016L22.3593 20.7344L21.6406 21.0156V21.2344L21.5859 21.2578L21.625 20.9844L21.5937 20.9766C21.5572 20.9766 21.5364 20.9844 21.5312 21C21.526 21.0156 21.5234 21.0339 21.5234 21.0547C21.5234 21.0755 21.5286 21.0964 21.539 21.1172C21.5494 21.138 21.552 21.1536 21.5468 21.1641L21.4453 21.1094L21.4609 21.1406C21.4609 21.1562 21.4687 21.1797 21.4843 21.2109C21.5 21.2422 21.5208 21.2708 21.5468 21.2969C21.5729 21.3229 21.5937 21.349 21.6093 21.375C21.625 21.401 21.6354 21.4141 21.6406 21.4141C21.6406 21.4297 21.6302 21.4453 21.6093 21.4609C21.5885 21.4766 21.5625 21.487 21.5312 21.4922C21.5 21.4974 21.4791 21.5052 21.4687 21.5156C21.4583 21.526 21.4583 21.5286 21.4687 21.5234C21.5416 21.5234 21.5572 21.5286 21.5156 21.5391C21.4739 21.5495 21.4088 21.5755 21.3203 21.6172C21.2317 21.6589 21.151 21.7188 21.0781 21.7969C21.0052 21.875 20.9635 21.9896 20.9531 22.1406C20.9531 22.2292 20.9557 22.3151 20.9609 22.3984C20.9661 22.4818 20.9635 22.5677 20.9531 22.6562C20.8802 22.4583 20.7708 22.3073 20.625 22.2031C20.4791 22.099 20.302 22.0469 20.0937 22.0469L19.7578 22.0781L19.9218 22.1875C19.8333 22.1771 19.7421 22.1667 19.6484 22.1562C19.5546 22.1458 19.4583 22.1432 19.3593 22.1484C19.2604 22.1536 19.1718 22.1745 19.0937 22.2109C19.0156 22.2474 18.9375 22.3021 18.8593 22.375L18.8125 22.7266C18.8125 22.8932 18.8489 23.0286 18.9218 23.1328C18.9947 23.237 19.1224 23.2917 19.3046 23.2969C19.4609 23.2969 19.6145 23.2734 19.7656 23.2266C19.9166 23.1797 20.0651 23.125 20.2109 23.0625C20.164 23.1771 20.1119 23.2865 20.0546 23.3906C19.9974 23.4948 19.9557 23.6094 19.9296 23.7344L20.0312 23.7812C20.1562 23.6979 20.2708 23.6849 20.375 23.7422C20.4791 23.7995 20.5807 23.8828 20.6796 23.9922C20.7786 24.1016 20.8802 24.2135 20.9843 24.3281C21.0885 24.4427 21.2005 24.526 21.3203 24.5781L21.0546 24.7188L20.4296 24.3672C20.4349 24.3776 20.4401 24.401 20.4453 24.4375C20.4505 24.474 20.4479 24.4818 20.4375 24.4609L20.1562 23.9844C19.9895 23.9792 19.8125 23.9531 19.625 23.9062C19.4375 23.8594 19.2474 23.7969 19.0546 23.7188C18.8619 23.6406 18.6822 23.5547 18.5156 23.4609C18.3489 23.3672 18.1953 23.2682 18.0546 23.1641L18 24C18 24.6354 18.0859 25.2552 18.2578 25.8594C18.4296 26.4635 18.6718 27.0312 18.9843 27.5625C19.2968 28.0938 19.6796 28.5781 20.1328 29.0156C20.5859 29.4531 21.0885 29.8255 21.6406 30.1328C21.6145 30.0234 21.6119 29.9141 21.6328 29.8047C21.6536 29.6953 21.6796 29.5859 21.7109 29.4766C21.7421 29.3672 21.776 29.2578 21.8125 29.1484C21.8489 29.0391 21.8671 28.9271 21.8671 28.8125C21.8671 28.6458 21.8411 28.4714 21.789 28.2891C21.7369 28.1068 21.6744 27.9219 21.6015 27.7344C21.5286 27.5469 21.4479 27.362 21.3593 27.1797C21.2708 26.9974 21.2005 26.8255 21.1484 26.6641C21.0963 26.5026 21.0546 26.3516 21.0234 26.2109C20.9921 26.0703 21.0078 25.9479 21.0703 25.8438L20.9531 25.7891C20.9843 25.7161 21.026 25.6458 21.0781 25.5781C21.1302 25.5104 21.1849 25.4427 21.2421 25.375C21.2994 25.3073 21.3437 25.2344 21.375 25.1562C21.4062 25.0781 21.4244 25 21.4296 24.9219C21.4296 24.8698 21.4192 24.8151 21.3984 24.7578C21.3776 24.7005 21.3593 24.6458 21.3437 24.5938L21.5078 24.6328C21.5963 24.4297 21.7161 24.2917 21.8671 24.2188C22.0182 24.1458 22.2083 24.1068 22.4375 24.1016C22.4635 24.1016 22.5182 24.112 22.6015 24.1328C22.6849 24.1536 22.7734 24.1823 22.8671 24.2188C22.9609 24.2552 23.0494 24.2839 23.1328 24.3047C23.2161 24.3255 23.2786 24.3464 23.3203 24.3672C23.3203 24.4036 23.3411 24.4271 23.3828 24.4375C23.4244 24.4479 23.4479 24.4661 23.4531 24.4922L23.4375 24.5547C23.4531 24.5599 23.4895 24.5781 23.5468 24.6094C23.6041 24.6406 23.6666 24.6797 23.7343 24.7266C23.802 24.7734 23.8619 24.8151 23.914 24.8516C23.9661 24.888 24.0026 24.9167 24.0234 24.9375C24.1171 24.9375 24.2447 24.9688 24.4062 25.0312C24.5677 25.0938 24.7447 25.1719 24.9375 25.2656C25.1302 25.3594 25.3203 25.4714 25.5078 25.6016C25.6953 25.7318 25.8724 25.862 26.039 25.9922C26.2057 26.1224 26.3333 26.2526 26.4218 26.3828C26.5104 26.513 26.5625 26.6276 26.5781 26.7266L26.3125 27.0078C26.3333 27.2734 26.3151 27.4766 26.2578 27.6172C26.2005 27.7578 26.1119 27.875 25.9921 27.9688C25.8724 28.0625 25.7343 28.1406 25.5781 28.2031C25.4218 28.2656 25.2526 28.3542 25.0703 28.4688C25.0703 28.5729 25.0442 28.6849 24.9921 28.8047C24.9401 28.9245 24.875 29.0391 24.7968 29.1484C24.7187 29.2578 24.625 29.349 24.5156 29.4219C24.4062 29.4948 24.2968 29.5312 24.1875 29.5312L23.8593 29.2812C23.8697 29.2917 23.8697 29.3099 23.8593 29.3359C23.8489 29.362 23.8359 29.3672 23.8203 29.3516C23.8724 29.4505 23.8854 29.5651 23.8593 29.6953C23.8333 29.8255 23.789 29.9583 23.7265 30.0938C23.664 30.2292 23.5937 30.3568 23.5156 30.4766C23.4375 30.5964 23.3671 30.6979 23.3046 30.7812C23.5859 30.8542 23.8671 30.9089 24.1484 30.9453C24.4296 30.9818 24.7135 31 25 31Z" fill="white"/>
</g>
<defs>
<clipPath id="clip0_13_2722">
<rect width="16" height="16" fill="white" transform="translate(17 16)"/>
</clipPath>
</defs>
</svg>
