<svg width="56" height="52" viewBox="0 0 56 52" fill="none" xmlns="http://www.w3.org/2000/svg">
<path d="M28.375 0C31.6042 0 35 0.114583 38.5625 0.34375C42.125 0.57292 45.875 1.02083 49.8125 1.6875V9.625C48.4167 9.22917 46.8229 8.85417 45.0313 8.5C43.4896 8.20833 41.6354 7.92708 39.4687 7.65625C37.3021 7.38542 34.8542 7.20833 32.125 7.125V47.5625H24.6875V7.125C21.9583 7.20833 19.5104 7.38542 17.3437 7.65625C15.1771 7.92708 13.3229 8.20833 11.7812 8.5C9.98958 8.85417 8.39583 9.22917 7 9.625V1.6875C10.8958 1.02083 14.6458 0.57292 18.25 0.34375C21.8542 0.114583 25.2292 0 28.375 0Z" fill="black"/>
<path d="M40.7654 13.3402C42.4533 14.5615 44.1138 15.8916 45.747 17.3305C47.4093 18.7647 48.9294 20.2889 50.3073 21.903C51.6973 23.5003 52.8701 25.1846 53.8256 26.956C54.7933 28.7105 55.4349 30.5248 55.7504 32.3988C56.0949 34.2682 56.0444 36.186 55.5989 38.1523C55.1655 40.1016 54.2222 42.0806 52.7689 44.0891C51.2912 46.1314 49.712 47.7274 48.0315 48.8772C46.3678 50.0392 44.6228 50.8338 42.7965 51.261C40.9871 51.7004 39.118 51.8136 37.189 51.6008C35.2892 51.3833 33.3582 50.9247 31.3959 50.2249C29.4458 49.5082 27.4861 48.5916 25.5167 47.4752C23.5595 46.3418 21.6272 45.0852 19.72 43.7051C18.5216 42.838 17.3561 41.9433 16.2235 41.0209C15.0909 40.0985 13.962 39.1531 12.8369 38.1847L6.2787 47.2484L0 42.7053L26.8923 5.53918C27.3491 5.68971 28.0437 5.97369 28.9759 6.39111C29.9251 6.82075 31.0116 7.36264 32.2355 8.01677C33.4763 8.68311 34.8253 9.46637 36.2826 10.3666C37.7521 11.2498 39.2464 12.2411 40.7654 13.3402ZM38.5581 20.229C37.4442 19.423 36.3442 18.7042 35.2582 18.0727C34.1844 17.4244 33.2251 16.8845 32.38 16.453C31.3709 15.9286 30.4255 15.476 29.5439 15.0952L17.0137 32.4123C17.4683 32.9213 17.9942 33.4561 18.5914 34.0168C19.0873 34.5042 19.6822 35.0504 20.3759 35.6552C21.082 36.2432 21.8569 36.8425 22.7008 37.4532C23.7979 38.247 24.9724 39.0582 26.2243 39.8869C27.5053 40.7109 28.8243 41.4468 30.1814 42.0945C31.5554 42.7544 32.9352 43.2641 34.3207 43.6238C35.7354 43.9788 37.1127 44.101 38.4526 43.9906C39.8217 43.8754 41.1357 43.4633 42.3945 42.7541C43.6703 42.0572 44.8516 40.9576 45.9385 39.4554C46.8423 38.2064 47.4336 36.9628 47.7124 35.7245C47.9912 34.4862 48.0289 33.2791 47.8254 32.1033C47.6219 30.9274 47.2147 29.7842 46.604 28.6737C46.0101 27.5754 45.2815 26.521 44.4182 25.5107C43.5718 24.5125 42.6367 23.5659 41.6129 22.6708C40.606 21.7879 39.5877 20.974 38.5581 20.229Z" fill="black"/>
</svg>
