<svg width="30" height="30" viewBox="0 0 30 30" fill="none" xmlns="http://www.w3.org/2000/svg">
<rect width="30" height="30" rx="10" fill="#EFE7A0" fill-opacity="0.27"/>
<path d="M14.5149 7.10988C13.8961 7.10496 13.2668 7.22519 12.6656 7.40519C11.7903 7.66711 10.9324 8.06859 10.3137 8.70597C9.68791 9.34406 9.3483 10.3066 9.65275 11.3156L10.4719 14.0543C10.7461 13.6289 11.0695 13.2352 11.4422 12.8871L10.8656 10.9535C10.6828 10.3488 10.827 9.99023 11.2172 9.58945C11.6074 9.19113 12.286 8.83957 13.0278 8.61773C13.5375 8.46515 14.0543 8.38007 14.5078 8.38007C14.7117 8.38007 14.9051 8.398 15.0738 8.43527C15.6188 8.55445 15.9352 8.77453 16.118 9.38097L16.6946 11.3156C17.2008 11.4035 17.6895 11.5512 18.15 11.7586L17.3309 9.01781C17.0285 8.00742 16.2164 7.39078 15.3445 7.20023C15.0738 7.14011 14.7961 7.11234 14.5149 7.10988ZM15.7102 11.8535C15.1653 11.85 14.6133 11.9238 14.0649 12.0891C11.1434 12.9609 9.48681 16.0301 10.3629 18.9551C11.2383 21.8766 14.3039 23.5324 17.2289 22.657C20.1504 21.7816 21.8063 18.716 20.9309 15.791C20.2207 13.4144 18.0621 11.8781 15.7102 11.8535ZM15.6012 14.1387C17.011 14.1176 18.3223 15.0316 18.7442 16.4449C19.2574 18.1535 18.2801 19.9605 16.575 20.4703C14.8664 20.9836 13.0594 20.0062 12.5496 18.3012C12.0363 16.5926 13.0137 14.7855 14.7188 14.2723C15.0141 14.1844 15.3094 14.1422 15.6012 14.1387ZM15.6785 14.768C15.5238 14.768 15.3656 14.782 15.2074 14.8102L15.5309 15.8789L14.9262 16.0617L14.6063 14.9894C14.1598 15.1828 13.7906 15.4887 13.5235 15.8648L14.5465 16.4168L14.2442 16.9758L13.2211 16.4273C13.0559 16.8562 12.9996 17.3309 13.084 17.809L14.1633 17.4855L14.3426 18.0937L13.2633 18.4172C13.7695 19.5773 15.0422 20.2137 16.2903 19.8937L15.1547 18.2766L16.5539 17.8582L16.4942 19.834C17.7106 19.4156 18.4242 18.1781 18.2098 16.9371L17.1305 17.257L16.9512 16.6523L18.0305 16.3289C17.8371 15.8824 17.5278 15.5168 17.1516 15.2496L16.5961 16.2727L16.0406 15.9703L16.5961 14.9473C16.3078 14.8348 15.9985 14.7715 15.6785 14.768Z" fill="#FFE602"/>
</svg>
