<svg width="49" height="49" viewBox="0 0 49 49" fill="none" xmlns="http://www.w3.org/2000/svg">
<circle cx="24.5" cy="24.5" r="24.5" fill="#3347FF" fill-opacity="0.2"/>
<g clip-path="url(#clip0_13_2732)">
<path d="M25 24C23.9 24 22.9583 23.6083 22.175 22.825C21.3917 22.0417 21 21.1 21 20C21 18.9 21.3917 17.9583 22.175 17.175C22.9583 16.3917 23.9 16 25 16C26.1 16 27.0417 16.3917 27.825 17.175C28.6083 17.9583 29 18.9 29 20C29 21.1 28.6083 22.0417 27.825 22.825C27.0417 23.6083 26.1 24 25 24ZM17 32V29.2C17 28.6333 17.146 28.1123 17.438 27.637C17.73 27.1617 18.1173 26.7993 18.6 26.55C19.6333 26.0333 20.6833 25.6457 21.75 25.387C22.8167 25.1283 23.9 24.9993 25 25C26.1 25 27.1833 25.1293 28.25 25.388C29.3167 25.6467 30.3667 26.034 31.4 26.55C31.8833 26.8 32.271 27.1627 32.563 27.638C32.855 28.1133 33.0007 28.634 33 29.2V32H17ZM19 30H31V29.2C31 29.0167 30.954 28.85 30.862 28.7C30.77 28.55 30.6493 28.4333 30.5 28.35C29.6 27.9 28.6917 27.5627 27.775 27.338C26.8583 27.1133 25.9333 27.0007 25 27C24.0667 27 23.1417 27.1127 22.225 27.338C21.3083 27.5633 20.4 27.9007 19.5 28.35C19.35 28.4333 19.229 28.55 19.137 28.7C19.045 28.85 18.9993 29.0167 19 29.2V30ZM25 22C25.55 22 26.021 21.804 26.413 21.412C26.805 21.02 27.0007 20.5493 27 20C27 19.45 26.804 18.979 26.412 18.587C26.02 18.195 25.5493 17.9993 25 18C24.45 18 23.979 18.196 23.587 18.588C23.195 18.98 22.9993 19.4507 23 20C23 20.55 23.196 21.021 23.588 21.413C23.98 21.805 24.4507 22.0007 25 22Z" fill="#3347FF"/>
</g>
<defs>
<clipPath id="clip0_13_2732">
<rect width="24" height="24" fill="white" transform="translate(13 12)"/>
</clipPath>
</defs>
</svg>
