<svg width="49" height="49" viewBox="0 0 49 49" fill="none" xmlns="http://www.w3.org/2000/svg">
<circle cx="24.5" cy="24.5" r="24.5" fill="#3347FF" fill-opacity="0.2"/>
<g clip-path="url(#clip0_16_15)">
<g clip-path="url(#clip1_16_15)">
<rect width="16" height="16" transform="translate(17 16)" fill="#3347FF"/>
<path d="M23 16H17V22H23V16ZM22 21H18V17H22V21Z" fill="white"/>
<path d="M19 18H21V20H19V18ZM17 32H23V26H17V32ZM18 27H22V31H18V27Z" fill="white"/>
<path d="M19 28H21V30H19V28ZM27 16V22H33V16H27ZM32 21H28V17H32V21Z" fill="white"/>
<path d="M29 18H31V20H29V18ZM19 23H17V25H20V24H19V23ZM24 25H26V27H24V25ZM20 23H22V24H20V23ZM26 28H24V29H25V30H26V29V28ZM23 23V24H22V25H24V23H23ZM25 20H26V22H25V20ZM26 24V25H28V23H25V24H26ZM24 22H25V23H24V22ZM26 30H28V32H26V30ZM24 30H25V32H24V30ZM26 27H27V28H26V27ZM26 19V17H25V16H24V20H25V19H26ZM29 30H30V32H29V30ZM29 28H31V29H29V28ZM28 29H29V30H28V29ZM27 28H28V29H27V28ZM31 26V27H32V28H33V26H32H31ZM32 29H31V32H33V30H32V29ZM27 26V27H30V25H28V26H27ZM29 23V24H31V25H33V23H31H29Z" fill="white"/>
</g>
</g>
<defs>
<clipPath id="clip0_16_15">
<rect width="24" height="24" fill="white" transform="translate(13 12)"/>
</clipPath>
<clipPath id="clip1_16_15">
<rect width="16" height="16" fill="white" transform="translate(17 16)"/>
</clipPath>
</defs>
</svg>
