<svg width="49" height="49" viewBox="0 0 49 49" fill="none" xmlns="http://www.w3.org/2000/svg">
<circle cx="24.5" cy="24.5" r="24.5" fill="#3347FF" fill-opacity="0.2"/>
<path d="M36.6733 24.42C36.6116 24.3286 36.5281 24.2539 36.4303 24.2027C36.3326 24.1515 36.2237 24.1254 36.1133 24.1267C35.5747 24.0519 35.0805 23.7871 34.72 23.38C34.0262 22.6216 33.4365 21.7742 32.9667 20.86L34.8867 17.86C35.0032 17.6861 35.0745 17.486 35.0943 17.2777C35.1141 17.0693 35.0817 16.8593 35 16.6667C34.9182 16.4914 34.7945 16.3389 34.6399 16.2226C34.4853 16.1064 34.3044 16.0299 34.1133 16C32.8924 15.8354 31.6497 16.0084 30.52 16.5C29.8726 16.7852 29.2634 17.1502 28.7067 17.5867C27.6162 17.0977 26.4551 16.7849 25.2667 16.66C20.54 16.2 16.22 19.2667 15.6667 23.3333C15.451 23.2363 15.2579 23.0956 15.0995 22.92C14.9411 22.7444 14.821 22.5378 14.7467 22.3133C14.6991 22.1594 14.6829 21.9975 14.6989 21.8372C14.715 21.6769 14.7629 21.5215 14.84 21.38C14.9091 21.2612 15.0079 21.1624 15.1267 21.0933C15.2076 21.0443 15.2782 20.9798 15.3342 20.9035C15.3903 20.8272 15.4308 20.7407 15.4534 20.6487C15.476 20.5568 15.4802 20.4613 15.4659 20.3677C15.4516 20.2742 15.419 20.1843 15.37 20.1033C15.321 20.0223 15.2565 19.9518 15.1802 19.8958C15.1039 19.8397 15.0173 19.7992 14.9254 19.7766C14.8335 19.754 14.738 19.7498 14.6444 19.7641C14.5508 19.7784 14.461 19.811 14.38 19.86C14.0573 20.0581 13.791 20.3359 13.6067 20.6667C13.4353 20.9771 13.3276 21.3186 13.2898 21.6712C13.2521 22.0237 13.285 22.3803 13.3867 22.72C13.5118 23.1316 13.7194 23.5135 13.9967 23.8424C14.2741 24.1713 14.6154 24.4404 15 24.6333L15.6133 24.94C15.69 26.5628 16.1031 28.152 16.8267 29.6067L16.94 29.86C17.5182 31.0829 18.2557 32.2239 19.1333 33.2533C19.1958 33.3244 19.2727 33.3814 19.3589 33.4205C19.4451 33.4596 19.5387 33.4799 19.6333 33.48H22.6467C22.7559 33.4795 22.8632 33.4521 22.9594 33.4003C23.0555 33.3486 23.1375 33.274 23.198 33.1831C23.2586 33.0923 23.2959 32.9879 23.3067 32.8793C23.3175 32.7706 23.3015 32.661 23.26 32.56L23 31.96L23.7867 32.0467C24.6734 32.1343 25.5666 32.1343 26.4533 32.0467C26.7 32.4467 26.9667 32.8467 27.26 33.24C27.3214 33.324 27.4016 33.3925 27.4942 33.44C27.5868 33.4874 27.6893 33.5126 27.7933 33.5133H30.6867C30.7967 33.5132 30.905 33.4859 31.0019 33.4338C31.0988 33.3817 31.1813 33.3064 31.2421 33.2146C31.3028 33.1229 31.3399 33.0175 31.35 32.9079C31.3601 32.7984 31.3429 32.688 31.3 32.5867C31.1867 32.32 31.0733 32.0333 30.9867 31.7867C30.8667 31.4333 30.7733 31.12 30.7 30.82C31.4363 30.4225 32.112 29.9219 32.7067 29.3333C33.3709 29.4136 34.0424 29.4136 34.7067 29.3333C34.8219 29.3159 34.9306 29.2686 35.0218 29.196C35.1131 29.1235 35.1837 29.0283 35.2267 28.92L36.7333 25.0467C36.7757 24.9453 36.7924 24.8351 36.782 24.7258C36.7715 24.6165 36.7342 24.5114 36.6733 24.42ZM34.1533 28.0467C33.63 28.0765 33.1049 28.0519 32.5867 27.9733C31.9965 27.8736 31.4267 27.6777 30.9 27.3933C30.744 27.316 30.564 27.3027 30.3983 27.3564C30.2327 27.4101 30.0947 27.5264 30.0137 27.6805C29.9327 27.8346 29.9152 28.0143 29.965 28.1812C30.0148 28.348 30.1278 28.4888 30.28 28.5733C30.5586 28.7194 30.8458 28.8485 31.14 28.96C30.7765 29.2704 30.3728 29.5305 29.94 29.7333L29.2333 30.0533C29.2333 30.0533 29.56 31.5133 29.78 32.16H28.1933C28.0333 31.9333 27.2267 30.5867 27.2267 30.5867L26.78 30.6467C25.8418 30.7819 24.8911 30.8088 23.9467 30.7267C23.5067 30.6867 22.7733 30.5933 22.2 30.4933L21.1667 30.3133C21.1667 30.3133 21.5867 31.9333 21.6667 32.14H19.9467C19.2441 31.2797 18.6486 30.3372 18.1733 29.3333L18.0533 29.0733C17.1871 27.406 16.8213 25.5238 17 23.6533C17.36 20.1933 21.08 17.58 25.1267 17.96C26.3038 18.092 27.4495 18.4257 28.5133 18.9467L28.9267 19.14L29.26 18.8267C29.7791 18.3628 30.3659 17.9806 31 17.6933C31.839 17.3294 32.7556 17.1805 33.6667 17.26L31.4133 20.7867L31.58 21.12C32.1622 22.2927 32.9049 23.3787 33.7867 24.3467C34.1962 24.7469 34.6811 25.0619 35.2133 25.2733L34.1533 28.0467Z" fill="#3347FF"/>
<path d="M26.1467 19.98C24.7394 19.705 23.2834 19.825 21.9401 20.3267C21.8748 20.3525 21.8153 20.3909 21.765 20.4397C21.7146 20.4886 21.6743 20.5468 21.6465 20.6112C21.5902 20.7412 21.5879 20.8883 21.6401 21.02C21.6922 21.1517 21.7946 21.2573 21.9246 21.3136C22.0546 21.3699 22.2017 21.3722 22.3334 21.32C23.49 20.8827 24.7447 20.772 25.9601 21C26.0313 21.0188 26.1057 21.0225 26.1784 21.0111C26.2512 20.9997 26.3208 20.9733 26.3829 20.9337C26.445 20.894 26.4982 20.8419 26.5391 20.7807C26.5801 20.7195 26.6079 20.6504 26.6208 20.5779C26.6338 20.5054 26.6316 20.4309 26.6143 20.3593C26.597 20.2877 26.5651 20.2204 26.5206 20.1618C26.476 20.1031 26.4198 20.0543 26.3555 20.0184C26.2911 19.9825 26.2201 19.9604 26.1467 19.9533V19.98Z" fill="#3347FF"/>
<path d="M29.92 25.0467C30.4207 25.0467 30.8266 24.6407 30.8266 24.14C30.8266 23.6393 30.4207 23.2333 29.92 23.2333C29.4192 23.2333 29.0133 23.6393 29.0133 24.14C29.0133 24.6407 29.4192 25.0467 29.92 25.0467Z" fill="#3347FF"/>
</svg>
