<svg width="49" height="49" viewBox="0 0 49 49" fill="none" xmlns="http://www.w3.org/2000/svg">
<circle cx="24.5" cy="24.5" r="24.5" fill="#26FF02" fill-opacity="0.2"/>
<path d="M25.5 22H29V20H27V19H25V20.05C24.3924 20.1734 23.8523 20.5181 23.4846 21.0173C23.1169 21.5164 22.9478 22.1344 23.0101 22.7512C23.0724 23.3681 23.3617 23.9398 23.8218 24.3553C24.2819 24.7709 24.88 25.0006 25.5 25H26.5C26.6326 25 26.7597 25.0527 26.8535 25.1464C26.9473 25.2402 27 25.3674 27 25.5C27 25.6326 26.9473 25.7598 26.8535 25.8536C26.7597 25.9473 26.6326 26 26.5 26H23V28H25V29H27V27.95C27.6075 27.8266 28.1476 27.4819 28.5153 26.9827C28.883 26.4836 29.0521 25.8656 28.9898 25.2488C28.9275 24.6319 28.6382 24.0602 28.1781 23.6447C27.718 23.2291 27.1199 22.9994 26.5 23H25.5C25.3673 23 25.2402 22.9473 25.1464 22.8536C25.0526 22.7598 25 22.6326 25 22.5C25 22.3674 25.0526 22.2402 25.1464 22.1464C25.2402 22.0527 25.3673 22 25.5 22Z" fill="#26FF02"/>
<path d="M38 21H35.98C35.9513 20.2099 35.7607 19.4342 35.4201 18.7207C35.0796 18.0072 34.5962 17.3712 34 16.852V13C34 12.8143 33.9483 12.6322 33.8507 12.4743C33.753 12.3163 33.6133 12.1886 33.4472 12.1056C33.2811 12.0225 33.0952 11.9874 32.9102 12.004C32.7252 12.0207 32.5486 12.0886 32.4 12.2L28.667 15H24C18.49 15 14.537 18.241 14.052 23H14C13.7348 23 13.4804 22.8946 13.2929 22.7071C13.1054 22.5196 13 22.2652 13 22V20H11V22C11.0008 22.7954 11.3171 23.558 11.8796 24.1204C12.442 24.6829 13.2046 24.9992 14 25H14.07C14.215 26.3113 14.6412 27.5758 15.3194 28.7074C15.9976 29.839 16.9119 30.8109 18 31.557V35C18 35.2652 18.1054 35.5196 18.2929 35.7071C18.4804 35.8946 18.7348 36 19 36H23C23.2652 36 23.5196 35.8946 23.7071 35.7071C23.8946 35.5196 24 35.2652 24 35V33H27V35C27 35.2652 27.1054 35.5196 27.2929 35.7071C27.4804 35.8946 27.7348 36 28 36H32C32.2652 36 32.5196 35.8946 32.7071 35.7071C32.8946 35.5196 33 35.2652 33 35V31.637C33.7223 31.2945 34.3539 30.7869 34.8437 30.155C35.3334 29.5232 35.6675 28.7849 35.819 28H38C38.2652 28 38.5196 27.8946 38.7071 27.7071C38.8946 27.5196 39 27.2652 39 27V22C39 21.7348 38.8946 21.4804 38.7071 21.2929C38.5196 21.1054 38.2652 21 38 21ZM37 26H34.124C33.819 28.753 33.3 29.485 31 30.315V34H29V31H22V34H20V30.378C18.7959 29.8051 17.7801 28.9009 17.0716 27.7712C16.3631 26.6416 15.9914 25.3334 16 24C16 19.165 20.018 17 24 17H29.333L32 15V17.776C34.418 19.636 33.913 20.962 34.018 23H37V26Z" fill="#26FF02"/>
</svg>
