<svg width="49" height="49" viewBox="0 0 49 49" fill="none" xmlns="http://www.w3.org/2000/svg">
<circle cx="24.5" cy="24.5" r="24.5" fill="#FFE602" fill-opacity="0.2"/>
<path d="M24.5 24.5C23.6253 24.5 22.7864 24.8687 22.1679 25.5251C21.5494 26.1815 21.2019 27.0717 21.2019 28C21.2019 28.9283 21.5494 29.8185 22.1679 30.4749C22.7864 31.1313 23.6253 31.5 24.5 31.5C25.3747 31.5 26.2136 31.1313 26.8321 30.4749C27.4506 29.8185 27.7981 28.9283 27.7981 28C27.7981 27.0717 27.4506 26.1815 26.8321 25.5251C26.2136 24.8687 25.3747 24.5 24.5 24.5ZM23.0865 28C23.0865 27.6022 23.2354 27.2206 23.5005 26.9393C23.7656 26.658 24.1251 26.5 24.5 26.5C24.8749 26.5 25.2344 26.658 25.4995 26.9393C25.7645 27.2206 25.9134 27.6022 25.9134 28C25.9134 28.3978 25.7645 28.7794 25.4995 29.0607C25.2344 29.342 24.8749 29.5 24.5 29.5C24.1251 29.5 23.7656 29.342 23.5005 29.0607C23.2354 28.7794 23.0865 28.3978 23.0865 28Z" fill="#FFE602"/>
<path d="M29.7071 17.116L26.7115 12.659L15.6969 21.997L15.0863 21.99V22H14.6057V34H34.3942V22H33.4877L31.6841 16.401L29.7071 17.116ZM31.4966 22H22.0471L29.0852 19.454L30.5194 18.967L31.4966 22ZM27.8451 17.79L20.5799 20.418L26.3337 15.54L27.8451 17.79ZM16.4903 30.169V25.829C16.8879 25.6795 17.249 25.4377 17.5473 25.1213C17.8456 24.8049 18.0737 24.4218 18.2148 24H30.7851C30.9262 24.422 31.1542 24.8052 31.4525 25.1218C31.7508 25.4384 32.1119 25.6803 32.5096 25.83V30.17C32.1119 30.3197 31.7508 30.5616 31.4525 30.8782C31.1542 31.1948 30.9262 31.578 30.7851 32H18.2166C18.0755 31.5777 17.8472 31.1941 17.5486 30.8774C17.2499 30.5606 16.8884 30.3186 16.4903 30.169Z" fill="#FFE602"/>
</svg>
